<?xml version="1.0" encoding="UTF-8"?>
<!DOCTYPE svg PUBLIC "-//W3C//DTD SVG 1.1//EN" "http://www.w3.org/Graphics/SVG/1.1/DTD/svg11.dtd">
<!-- Creator: CorelDRAW X7 -->
<svg xmlns="http://www.w3.org/2000/svg" xml:space="preserve" width="604px" height="649px" version="1.1" style="shape-rendering:geometricPrecision; text-rendering:geometricPrecision; image-rendering:optimizeQuality; fill-rule:evenodd; clip-rule:evenodd"
viewBox="0 0 604 649"
 xmlns:xlink="http://www.w3.org/1999/xlink">
 <defs>
  <style type="text/css">
   <![CDATA[
    .fil0 {fill:black}
   ]]>
  </style>
 </defs>
 <g id="Capa_x0020_1">
  <metadata id="CorelCorpID_0Corel-Layer"/>
  <g id="_1877480092240">
   <path class="fil0" d="M339 311l-8 17 33 18c2,-5 3,-11 7,-17 24,-42 88,-28 96,13 15,-2 39,-7 52,-12l1 -9c-4,-2 -18,-7 -23,-9 -15,-5 -65,-29 -68,-30 -4,3 -7,7 -14,8 -19,2 -32,-19 -24,-35 4,-8 14,-16 27,-11 11,4 16,12 16,25 8,6 80,40 91,41 2,-3 4,-4 5,-8l-22 -31c-8,2 -22,12 -41,-4 -18,-15 -13,-35 -15,-38 -4,-2 -43,-17 -49,-18 -2,9 -16,18 -29,19l-10 25c9,4 15,24 9,38 -6,13 -16,19 -34,18zm245 -85c5,12 4,20 11,21l-5 -22c-2,0 -3,0 -6,1zm-7 31c2,-5 3,-6 8,-10 -1,-4 -3,-9 -5,-13 -2,-7 -1,-9 -8,-10l-3 32 8 1zm-220 -211l6 1c2,-9 12,-23 13,-29 -7,-3 -19,-5 -27,-6 4,12 6,21 8,34zm92 402c2,21 34,19 32,-3 -2,-21 -34,-19 -32,3zm-76 120c10,0 63,-17 71,-25 -2,-1 -21,-7 -22,-7 -3,1 -4,4 -11,3 -5,0 -7,-2 -11,-3 -4,6 -22,25 -27,32zm193 -276c13,5 15,12 16,28 5,0 9,0 11,-3 8,-9 6,-19 6,-34 -10,0 -14,1 -19,-7 -5,-8 0,-12 -12,-12l-2 28zm-14 156c4,-6 8,-13 12,-19 6,-12 5,-12 9,-23 -6,4 -11,3 -15,-2 -3,2 -7,5 -10,7l-10 7c-3,3 -3,6 -5,12 -2,4 -4,7 -5,10 6,4 15,8 24,8zm-183 -328c1,5 2,14 3,20l3 15c7,1 9,3 15,6 7,-5 14,-11 20,-16 -1,-4 -11,-14 -14,-18 -4,-4 -10,-13 -15,-16 -4,2 -7,8 -12,9zm147 143c2,6 17,27 22,33 8,-3 9,-5 20,-5l2 -29c-5,-2 -32,-7 -40,-8 -1,4 -2,6 -4,9zm49 -43c-6,-4 -9,-6 -12,-10 -8,2 -28,12 -33,16 1,7 3,9 3,18l38 9 4 -33zm-165 -51c0,1 5,11 6,13 2,6 2,11 2,17l48 19 6 -8c-4,-6 -41,-53 -44,-56 -6,4 -13,12 -18,15zm19 -32l31 -21c-3,-2 -4,-4 -7,-8 -2,-4 -2,-7 -4,-11 -9,-3 -40,-10 -51,-11 0,4 0,6 -1,10 -1,4 -1,3 2,7l30 34zm117 274c34,-19 15,-14 31,-35 16,-22 16,-4 27,-39 -6,-6 -3,-7 -5,-10 -9,2 -8,-1 -12,7 -8,16 -19,21 -35,26l-18 41c3,2 4,2 7,4l4 5c0,0 0,1 0,1 0,0 1,0 1,0zm-109 -264c1,3 8,11 10,14 4,5 8,9 12,14 3,5 7,10 11,15 3,4 7,11 11,14l10 -2 -5 -68c-22,-6 -5,-19 -49,13zm61 -9c-2,5 3,56 4,65 8,6 7,1 21,14 7,-2 21,-12 34,-15 -3,-13 -5,-11 -17,-15 -4,2 -5,5 -10,5 -4,0 -8,-2 -11,-4 -19,-15 -1,-32 14,-16 3,3 4,6 8,8 3,1 8,3 11,4l4 -9c-6,-5 -33,-34 -37,-37 -3,-2 -4,0 -8,0 -5,1 -9,0 -13,0zm-103 223c7,42 69,31 63,-10 -7,-40 -70,-31 -63,10zm-11 -307c5,8 9,9 13,22 19,3 35,9 53,13 7,-24 49,-7 68,17 7,8 8,14 5,27l32 33c5,6 3,6 15,6 -1,-7 -8,-27 -11,-34 -6,-19 -52,-65 -64,-70 -13,17 -72,-16 -55,-32 -9,-5 -28,-12 -40,-14 -5,10 -11,20 -16,32zm123 309c17,-6 16,18 2,22 -7,2 -12,-2 -12,-9 1,-6 6,-12 10,-13zm-10 51c4,-4 9,-7 16,-10 11,-4 10,1 15,-10 4,-8 15,-29 16,-36 -15,-10 -8,-8 -14,-17l-50 12c-2,45 -32,50 -37,55 6,4 12,10 19,14 8,-2 13,-5 22,-1 21,8 24,36 6,48 -16,12 -22,-1 -28,6l-27 32c-1,2 -1,1 -2,3 4,7 3,7 5,16 6,2 24,11 30,10 9,-1 57,-40 66,-52 -5,1 -11,5 -16,7 -10,4 -6,3 -12,9 -5,6 -18,17 -30,15 -15,-3 0,-28 22,-34 10,-2 10,0 15,5 9,-3 16,-7 23,-11 4,-2 9,-4 11,-7 3,-3 6,-7 7,-10 -2,-1 -9,-2 -13,-3 -4,-2 -7,-3 -11,-5 -7,3 -10,9 -20,12 7,-28 0,-32 -13,-48z"/>
   <path class="fil0" d="M52 327l149 -54 122 50 51 -114c-2,-13 -30,-192 -35,-197 -92,-21 -182,8 -250,74 -9,9 -19,20 -27,31 -35,46 -53,98 -57,158 -1,12 3,12 18,26 5,4 24,26 29,26z"/>
   <path class="fil0" d="M27 449c13,1 28,3 41,4 5,0 36,2 40,5 -9,6 -43,43 -49,48l0 -33c-2,-2 -4,-3 -6,-5l0 50c0,3 -1,3 1,5 4,1 6,4 10,3 4,-1 5,-4 11,-3l65 14c1,0 1,0 2,1l-76 3c-5,4 -7,2 -8,10 -1,6 -2,11 -2,17l14 8c10,1 35,-9 46,-9 -2,2 -4,4 -6,6 -26,24 -11,22 -41,20 1,11 -2,21 3,30 15,24 50,24 75,17 11,-3 9,-4 19,-15 6,-7 44,-51 46,-55 -3,-7 -16,-24 -21,-31l-60 -90c0,0 -1,0 -1,0l-37 -56c-3,-5 -34,-53 -38,-56 -2,17 -30,106 -28,112z"/>
   <path class="fil0" d="M221 560l134 -164c9,-11 2,-25 4,-38l-38 -20 -109 31 -103 29 112 162z"/>
  </g>
 </g>
</svg>
