<svg width="30" height="30" viewBox="0 0 30 30" fill="none" xmlns="http://www.w3.org/2000/svg">
<path d="M10.3125 10.3125V7.96875C10.3125 7.34715 10.5594 6.75101 10.999 6.31147C11.4385 5.87193 12.0346 5.625 12.6562 5.625H24.8438C25.4654 5.625 26.0615 5.87193 26.501 6.31147C26.9406 6.75101 27.1875 7.34715 27.1875 7.96875V22.0312C27.1875 22.6529 26.9406 23.249 26.501 23.6885C26.0615 24.1281 25.4654 24.375 24.8438 24.375H12.6562C12.0346 24.375 11.4385 24.1281 10.999 23.6885C10.5594 23.249 10.3125 22.6529 10.3125 22.0312V19.6875" stroke="black" stroke-width="1.875" stroke-linecap="round" stroke-linejoin="round"/>
<path d="M15.9375 19.6875L20.625 15L15.9375 10.3125M2.8125 15H19.6875" stroke="black" stroke-width="1.875" stroke-linecap="round" stroke-linejoin="round"/>
</svg>
