<?xml version="1.0" encoding="UTF-8"?>
<!DOCTYPE svg PUBLIC "-//W3C//DTD SVG 1.1//EN" "http://www.w3.org/Graphics/SVG/1.1/DTD/svg11.dtd">
<!-- Creator: CorelDRAW X7 -->
<svg xmlns="http://www.w3.org/2000/svg" xml:space="preserve" width="182px" height="350px" version="1.1" style="shape-rendering:geometricPrecision; text-rendering:geometricPrecision; image-rendering:optimizeQuality; fill-rule:evenodd; clip-rule:evenodd"
viewBox="0 0 182 350"
 xmlns:xlink="http://www.w3.org/1999/xlink">
 <defs>
  <style type="text/css">
   <![CDATA[
    .fil0 {fill:white}
   ]]>
  </style>
 </defs>
 <g id="Capa_x0020_1">
  <metadata id="CorelCorpID_0Corel-Layer"/>
  <path class="fil0" d="M71 173l50 -50c2,-1 4,-1 5,0l50 50c1,1 1,3 0,4l-50 50c-1,2 -3,2 -5,0l-50 -50c-1,-1 -1,-3 0,-4zm-7 -4c0,2 2,2 3,1l51 -51c1,-1 1,-3 0,-4l-109 -109c-2,-2 -5,-1 -3,3l58 160zm0 12c0,-2 2,-2 3,-1l51 51c1,1 1,3 0,4l-109 109c-2,2 -5,1 -3,-3l58 -160zm87 -17l3 0 0 7 -3 0 0 6 -3 0 0 3 -3 0 0 2 3 0 0 7 -4 0 0 -6 -3 0 0 -3 -2 0 -2 0 0 3 -3 0 0 6 -4 0 0 -7 3 0 0 -2 -3 0 0 -3 -3 0 0 -6 -3 0 0 -7 3 0 0 -3 5 0 0 5 -3 0 0 4 1 0 0 -3 3 0 0 -2 6 0 6 0 0 2 3 0 0 3 1 0 0 -4 -3 0 0 -5 5 0 0 3zm-14 11l-4 0 0 -4 4 0 0 4zm4 0l4 0 0 -4 -4 0 0 4z"/>
 </g>
</svg>
