<?xml version="1.0" encoding="UTF-8"?>
<!DOCTYPE svg PUBLIC "-//W3C//DTD SVG 1.1//EN" "http://www.w3.org/Graphics/SVG/1.1/DTD/svg11.dtd">
<!-- Creator: CorelDRAW X7 -->
<svg xmlns="http://www.w3.org/2000/svg" xml:space="preserve" width="443px" height="111px" version="1.1" style="shape-rendering:geometricPrecision; text-rendering:geometricPrecision; image-rendering:optimizeQuality; fill-rule:evenodd; clip-rule:evenodd"
viewBox="0 0 443 111"
 xmlns:xlink="http://www.w3.org/1999/xlink">
 <defs>
  <style type="text/css">
   <![CDATA[
    .fil0 {fill:black}
   ]]>
  </style>
 </defs>
 <g id="Capa_x0020_1">
  <metadata id="CorelCorpID_0Corel-Layer"/>
  <path class="fil0" d="M5 106l172 0 -1 -13 -171 0 0 13zm240 -94c-1,8 3,8 8,6 3,-5 0,-9 -6,-8l-2 2zm0 59l9 0 0 -42 -9 -1 0 43zm-109 -16c-2,-1 -7,-2 -11,-4 -11,-8 -7,-22 4,-26 3,-1 5,-1 8,-3 -7,-2 -12,-4 -19,0 -19,10 -10,43 18,33zm-124 16l10 -1 0 -64 -10 1 0 64zm379 -10c-23,13 -34,-17 -18,-25 8,-3 11,1 17,3 1,-8 2,-10 -5,-11 -31,-6 -35,30 -19,40 9,6 17,3 25,2l0 -9zm-155 0c0,0 -26,10 -26,-11 0,-24 25,-11 25,-11l0 -8c-6,-5 -17,-5 -24,-1 -21,13 -8,53 25,39l0 -8zm84 10c4,-13 -7,-35 9,-37 14,-1 10,17 10,37l9 -1c0,-8 1,-29 -2,-35 -5,-10 -16,-9 -25,-3 -2,-4 3,-4 -9,-4l0 43 8 0zm-18 -12c-6,2 -9,6 -19,4 -6,-1 -9,-5 -10,-13l30 0c1,-29 -32,-29 -38,-9 -7,26 19,39 37,26l0 -8zm-29 -14l21 0c0,-7 -3,-10 -11,-10 -6,0 -9,4 -10,10zm156 0l-21 0c2,-13 20,-14 21,0zm8 14c-2,1 -28,14 -29,-9l30 0c0,-30 -35,-28 -38,-6 -4,19 9,31 28,27 9,-2 9,-3 9,-12zm-385 -44l1 56 9 0 0 -56 23 0 0 -9 -55 0 0 9 22 0zm106 39c-1,9 -2,12 6,15 23,9 37,-9 27,-25 -5,-9 -19,-13 -23,-19 -4,-6 1,-10 7,-10 9,-1 10,3 17,5l-1 -11c-8,-3 -21,-8 -30,2 -20,24 32,33 23,47 -3,5 -10,5 -15,3 -6,-2 -7,-5 -11,-7zm-8 1c-11,4 -17,11 -33,6 -22,-7 -21,-39 2,-45 14,-4 25,4 30,5l0 -9c-9,-7 -28,-9 -39,-3 -27,14 -23,50 1,60 15,6 28,1 39,-4l0 -10z"/>
 </g>
</svg>
