<?xml version="1.0" encoding="UTF-8"?>
<!DOCTYPE svg PUBLIC "-//W3C//DTD SVG 1.1//EN" "http://www.w3.org/Graphics/SVG/1.1/DTD/svg11.dtd">
<!-- Creator: CorelDRAW X7 -->
<svg xmlns="http://www.w3.org/2000/svg" xml:space="preserve" width="943px" height="516px" version="1.1" style="shape-rendering:geometricPrecision; text-rendering:geometricPrecision; image-rendering:optimizeQuality; fill-rule:evenodd; clip-rule:evenodd"
viewBox="0 0 943 516"
 xmlns:xlink="http://www.w3.org/1999/xlink">
 <defs>
  <style type="text/css">
   <![CDATA[
    .fil0 {fill:black}
   ]]>
  </style>
 </defs>
 <g id="Capa_x0020_1">
  <metadata id="CorelCorpID_0Corel-Layer"/>
  <g id="_2514074936352">
   <path class="fil0" d="M357 308l171 0 0 -13 -171 0 0 13zm239 -93c0,7 4,8 9,5 2,-5 0,-8 -7,-7l-2 2zm1 58l8 0 0 -42 -8 0 0 42zm-109 -15c-2,-2 -7,-2 -11,-5 -11,-8 -8,-22 4,-26 3,-1 5,0 7,-2 -7,-2 -11,-5 -19,0 -19,10 -9,43 19,33zm-124 15l9 0 0 -64 -9 0 0 64zm378 -10c-22,14 -33,-17 -17,-24 7,-4 11,1 17,2 0,-7 2,-9 -6,-10 -31,-6 -34,29 -19,40 9,5 17,2 26,1l-1 -9zm-155 1c0,0 -25,10 -25,-12 0,-23 25,-11 25,-11l-1 -8c-6,-4 -17,-4 -23,0 -21,12 -8,52 24,39l0 -8zm84 9c5,-13 -6,-34 10,-36 14,-1 9,17 10,36l8 0c1,-9 2,-29 -1,-36 -5,-9 -17,-9 -25,-2 -3,-4 2,-5 -10,-4l1 42 7 0zm-17 -11c-7,2 -10,6 -19,4 -6,-1 -10,-6 -10,-13l29 0c2,-29 -32,-29 -37,-9 -7,25 18,39 37,25l0 -7zm-29 -15l20 0c0,-6 -3,-10 -10,-9 -6,0 -9,4 -10,9zm155 0l-20 0c2,-13 19,-13 20,0zm9 15c-3,0 -28,13 -29,-9l29 0c1,-31 -34,-29 -38,-7 -3,20 10,32 29,27 8,-2 9,-2 9,-11zm-385 -45l0 56 10 0 0 -56 22 0 0 -8 -54 0 0 8 22 0zm105 40c-1,9 -1,12 6,15 23,9 37,-10 28,-25 -6,-9 -20,-13 -24,-19 -4,-6 2,-10 8,-11 9,0 10,3 16,5l0 -10c-8,-3 -21,-9 -30,2 -20,23 32,32 23,47 -3,4 -10,4 -15,3 -7,-2 -7,-5 -12,-7zm-8 1c-10,3 -17,10 -32,5 -22,-7 -22,-38 1,-45 15,-4 25,4 31,5l0 -9c-10,-7 -28,-9 -40,-3 -26,14 -23,50 1,60 16,7 28,2 39,-3l0 -10z"/>
   <path class="fil0" d="M220 256l50 -50c1,-1 3,-1 4,0l50 50c2,1 2,3 0,4l-50 50c-1,2 -3,2 -4,0l-50 -50c-1,-1 -1,-3 0,-4zm-8 -4c1,2 2,2 4,1l50 -51c2,-1 2,-3 0,-4l-109 -109c-2,-2 -4,-1 -3,3l58 160zm0 12c1,-2 3,-2 4,-1l51 51c1,1 1,3 0,4l-110 109c-2,2 -4,1 -3,-3l58 -160zm87 -17l3 0 0 7 -3 0 0 6 -3 0 0 3 -3 0 0 2 3 0 0 7 -4 0 0 -6 -3 0 0 -3 -2 0 -2 0 0 3 -3 0 0 6 -4 0 0 -7 3 0 0 -2 -3 0 0 -3 -3 0 0 -6 -3 0 0 -7 3 0 0 -3 5 0 0 5 -3 0 0 4 1 0 0 -3 3 0 0 -2 6 0 6 0 0 2 3 0 0 3 1 0 0 -4 -3 0 0 -5 5 0 0 3zm-14 11l-4 0 0 -4 4 0 0 4zm4 0l4 0 0 -4 -4 0 0 4z"/>
  </g>
 </g>
</svg>
