<svg width="24" height="2722" viewBox="0 0 24 2722" fill="none" xmlns="http://www.w3.org/2000/svg">
<path d="M12 0C7.58172 1.93129e-07 4 3.58172 4 8C4 12.4183 7.58172 16 12 16C16.4183 16 20 12.4183 20 8C20 3.58172 16.4183 -1.93129e-07 12 0ZM10.9395 2721.06C11.5252 2721.65 12.475 2721.65 13.0608 2721.06L22.6067 2711.51C23.1925 2710.93 23.1925 2709.98 22.6067 2709.39C22.0209 2708.81 21.0712 2708.81 20.4854 2709.39L12.0001 2717.88L3.51484 2709.39C2.92905 2708.81 1.9793 2708.81 1.39352 2709.39C0.80773 2709.98 0.80773 2710.93 1.39352 2711.51L10.9395 2721.06ZM10.5 8L10.5 11L13.5 11L13.5 8L10.5 8ZM10.5 17L10.5 23L13.5 23L13.5 17L10.5 17ZM10.5 29L10.5 35L13.5 35L13.5 29L10.5 29ZM10.5 41L10.5 47L13.5 47L13.5 41L10.5 41ZM10.5 53L10.5 59L13.5 59L13.5 53L10.5 53ZM10.5 65L10.5 71L13.5 71L13.5 65L10.5 65ZM10.5 77L10.5 83L13.5 83L13.5 77L10.5 77ZM10.5 89L10.5 95L13.5 95L13.5 89L10.5 89ZM10.5 101L10.5 107L13.5 107L13.5 101L10.5 101ZM10.5 113L10.5 119L13.5 119L13.5 113L10.5 113ZM10.5 125L10.5 131L13.5 131L13.5 125L10.5 125ZM10.5 137L10.5 143L13.5 143L13.5 137L10.5 137ZM10.5 149L10.5 155L13.5 155L13.5 149L10.5 149ZM10.5 161L10.5 167L13.5 167L13.5 161L10.5 161ZM10.5 173L10.5 179L13.5 179L13.5 173L10.5 173ZM10.5 185L10.5 191L13.5 191L13.5 185L10.5 185ZM10.5 197L10.5 203L13.5 203L13.5 197L10.5 197ZM10.5 209L10.5 215L13.5 215L13.5 209L10.5 209ZM10.5 221L10.5 227L13.5 227L13.5 221L10.5 221ZM10.5 233L10.5 239L13.5 239L13.5 233L10.5 233ZM10.5 245L10.5 251L13.5 251L13.5 245L10.5 245ZM10.5 257L10.5 263L13.5 263L13.5 257L10.5 257ZM10.5 269L10.5 275L13.5 275L13.5 269L10.5 269ZM10.5 281L10.5 287L13.5 287L13.5 281L10.5 281ZM10.5 293L10.5 299L13.5 299L13.5 293L10.5 293ZM10.5 305L10.5 311L13.5 311L13.5 305L10.5 305ZM10.5 317L10.5 323L13.5 323L13.5 317L10.5 317ZM10.5 329L10.5 335L13.5 335L13.5 329L10.5 329ZM10.5 341L10.5 347L13.5 347L13.5 341L10.5 341ZM10.5 353L10.5 359L13.5 359L13.5 353L10.5 353ZM10.5 365L10.5 371L13.5 371L13.5 365L10.5 365ZM10.5 377L10.5 383L13.5 383L13.5 377L10.5 377ZM10.5 389L10.5 395L13.5 395L13.5 389L10.5 389ZM10.5 401L10.5 407L13.5 407L13.5 401L10.5 401ZM10.5 413L10.5 419L13.5 419L13.5 413L10.5 413ZM10.5 425L10.5 431L13.5 431L13.5 425L10.5 425ZM10.5 437L10.5 443L13.5 443L13.5 437L10.5 437ZM10.5 449L10.5 455L13.5 455L13.5 449L10.5 449ZM10.5 461L10.5 467L13.5 467L13.5 461L10.5 461ZM10.5 473L10.5 479L13.5 479L13.5 473L10.5 473ZM10.5 485L10.5 491L13.5 491L13.5 485L10.5 485ZM10.5 497L10.5 503L13.5 503L13.5 497L10.5 497ZM10.5 509L10.5 515L13.5 515L13.5 509L10.5 509ZM10.5 521L10.5 527L13.5 527L13.5 521L10.5 521ZM10.5 533L10.5 539L13.5 539L13.5 533L10.5 533ZM10.5 545L10.5 551L13.5 551L13.5 545L10.5 545ZM10.5 557L10.5 563L13.5 563L13.5 557L10.5 557ZM10.5 569L10.5 575L13.5 575L13.5 569L10.5 569ZM10.5 581L10.5 587L13.5 587L13.5 581L10.5 581ZM10.5 593L10.5 599L13.5 599L13.5 593L10.5 593ZM10.5 605L10.5 611L13.5 611L13.5 605L10.5 605ZM10.5 617L10.5 623L13.5 623L13.5 617L10.5 617ZM10.5 629L10.5 635L13.5 635L13.5 629L10.5 629ZM10.5 641L10.5 647L13.5 647L13.5 641L10.5 641ZM10.5 653L10.5 659L13.5 659L13.5 653L10.5 653ZM10.5 665L10.5 671L13.5 671L13.5 665L10.5 665ZM10.5 677L10.5 683L13.5 683L13.5 677L10.5 677ZM10.5 689L10.5 695L13.5 695L13.5 689L10.5 689ZM10.5 701L10.5 707L13.5 707L13.5 701L10.5 701ZM10.5 713L10.5 719L13.5 719L13.5 713L10.5 713ZM10.5 725L10.5 731L13.5 731L13.5 725L10.5 725ZM10.5 737L10.5 743L13.5 743L13.5 737L10.5 737ZM10.5 749L10.5 755L13.5 755L13.5 749L10.5 749ZM10.5 761L10.5 767L13.5 767L13.5 761L10.5 761ZM10.5 773L10.5 779L13.5 779L13.5 773L10.5 773ZM10.5 785L10.5 791L13.5 791L13.5 785L10.5 785ZM10.5 797L10.5 803L13.5 803L13.5 797L10.5 797ZM10.5 809L10.5 815L13.5 815L13.5 809L10.5 809ZM10.5 821L10.5 827L13.5 827L13.5 821L10.5 821ZM10.5 833L10.5 839L13.5 839L13.5 833L10.5 833ZM10.5 845L10.5 851L13.5 851L13.5 845L10.5 845ZM10.5 857L10.5 863L13.5 863L13.5 857L10.5 857ZM10.5 869L10.5 875L13.5 875L13.5 869L10.5 869ZM10.5 881L10.5 887L13.5 887L13.5 881L10.5 881ZM10.5 893L10.5 899L13.5 899L13.5 893L10.5 893ZM10.5 905L10.5 911L13.5 911L13.5 905L10.5 905ZM10.5 917L10.5 923L13.5 923L13.5 917L10.5 917ZM10.5 929L10.5 935L13.5 935L13.5 929L10.5 929ZM10.5 941L10.5 947L13.5 947L13.5 941L10.5 941ZM10.5 953L10.5 959L13.5 959L13.5 953L10.5 953ZM10.5 965L10.5 971L13.5 971L13.5 965L10.5 965ZM10.5 977L10.5 983L13.5 983L13.5 977L10.5 977ZM10.5 989L10.5 995L13.5 995L13.5 989L10.5 989ZM10.5 1001L10.5 1007L13.5 1007L13.5 1001L10.5 1001ZM10.5 1013L10.5 1019L13.5 1019L13.5 1013L10.5 1013ZM10.5 1025L10.5 1031L13.5 1031L13.5 1025L10.5 1025ZM10.5 1037L10.5 1043L13.5 1043L13.5 1037L10.5 1037ZM10.5 1049L10.5 1055L13.5 1055L13.5 1049L10.5 1049ZM10.5 1061L10.5 1067L13.5 1067L13.5 1061L10.5 1061ZM10.5 1073L10.5 1079L13.5 1079L13.5 1073L10.5 1073ZM10.5 1085L10.5 1091L13.5 1091L13.5 1085L10.5 1085ZM10.5 1097L10.5 1103L13.5 1103L13.5 1097L10.5 1097ZM10.5 1109L10.5 1115L13.5 1115L13.5 1109L10.5 1109ZM10.5 1121L10.5 1127L13.5 1127L13.5 1121L10.5 1121ZM10.5 1133L10.5 1139L13.5 1139L13.5 1133L10.5 1133ZM10.5 1145L10.5 1151L13.5 1151L13.5 1145L10.5 1145ZM10.5001 1157L10.5001 1163L13.5001 1163L13.5001 1157L10.5001 1157ZM10.5001 1169L10.5001 1175L13.5001 1175L13.5001 1169L10.5001 1169ZM10.5001 1181L10.5001 1187L13.5001 1187L13.5001 1181L10.5001 1181ZM10.5001 1193L10.5001 1199L13.5001 1199L13.5001 1193L10.5001 1193ZM10.5001 1205L10.5001 1211L13.5001 1211L13.5001 1205L10.5001 1205ZM10.5001 1217L10.5001 1223L13.5001 1223L13.5001 1217L10.5001 1217ZM10.5001 1229L10.5001 1235L13.5001 1235L13.5001 1229L10.5001 1229ZM10.5001 1241L10.5001 1247L13.5001 1247L13.5001 1241L10.5001 1241ZM10.5001 1253L10.5001 1259L13.5001 1259L13.5001 1253L10.5001 1253ZM10.5001 1265L10.5001 1271L13.5001 1271L13.5001 1265L10.5001 1265ZM10.5001 1277L10.5001 1283L13.5001 1283L13.5001 1277L10.5001 1277ZM10.5001 1289L10.5001 1295L13.5001 1295L13.5001 1289L10.5001 1289ZM10.5001 1301L10.5001 1307L13.5001 1307L13.5001 1301L10.5001 1301ZM10.5001 1313L10.5001 1319L13.5001 1319L13.5001 1313L10.5001 1313ZM10.5001 1325L10.5001 1331L13.5001 1331L13.5001 1325L10.5001 1325ZM10.5001 1337L10.5001 1343L13.5001 1343L13.5001 1337L10.5001 1337ZM10.5001 1349L10.5001 1355L13.5001 1355L13.5001 1349L10.5001 1349ZM10.5001 1361L10.5001 1367L13.5001 1367L13.5001 1361L10.5001 1361ZM10.5001 1373L10.5001 1379L13.5001 1379L13.5001 1373L10.5001 1373ZM10.5001 1385L10.5001 1391L13.5001 1391L13.5001 1385L10.5001 1385ZM10.5001 1397L10.5001 1403L13.5001 1403L13.5001 1397L10.5001 1397ZM10.5001 1409L10.5001 1415L13.5001 1415L13.5001 1409L10.5001 1409ZM10.5001 1421L10.5001 1427L13.5001 1427L13.5001 1421L10.5001 1421ZM10.5001 1433L10.5001 1439L13.5001 1439L13.5001 1433L10.5001 1433ZM10.5001 1445L10.5001 1451L13.5001 1451L13.5001 1445L10.5001 1445ZM10.5001 1457L10.5001 1463L13.5001 1463L13.5001 1457L10.5001 1457ZM10.5001 1469L10.5001 1475L13.5001 1475L13.5001 1469L10.5001 1469ZM10.5001 1481L10.5001 1487L13.5001 1487L13.5001 1481L10.5001 1481ZM10.5001 1493L10.5001 1499L13.5001 1499L13.5001 1493L10.5001 1493ZM10.5001 1505L10.5001 1511L13.5001 1511L13.5001 1505L10.5001 1505ZM10.5001 1517L10.5001 1523L13.5001 1523L13.5001 1517L10.5001 1517ZM10.5001 1529L10.5001 1535L13.5001 1535L13.5001 1529L10.5001 1529ZM10.5001 1541L10.5001 1547L13.5001 1547L13.5001 1541L10.5001 1541ZM10.5001 1553L10.5001 1559L13.5001 1559L13.5001 1553L10.5001 1553ZM10.5001 1565L10.5001 1571L13.5001 1571L13.5001 1565L10.5001 1565ZM10.5001 1577L10.5001 1583L13.5001 1583L13.5001 1577L10.5001 1577ZM10.5001 1589L10.5001 1595L13.5001 1595L13.5001 1589L10.5001 1589ZM10.5001 1601L10.5001 1607L13.5001 1607L13.5001 1601L10.5001 1601ZM10.5001 1613L10.5001 1619L13.5001 1619L13.5001 1613L10.5001 1613ZM10.5001 1625L10.5001 1631L13.5001 1631L13.5001 1625L10.5001 1625ZM10.5001 1637L10.5001 1643L13.5001 1643L13.5001 1637L10.5001 1637ZM10.5001 1649L10.5001 1655L13.5001 1655L13.5001 1649L10.5001 1649ZM10.5001 1661L10.5001 1667L13.5001 1667L13.5001 1661L10.5001 1661ZM10.5001 1673L10.5001 1679L13.5001 1679L13.5001 1673L10.5001 1673ZM10.5001 1685L10.5001 1691L13.5001 1691L13.5001 1685L10.5001 1685ZM10.5001 1697L10.5001 1703L13.5001 1703L13.5001 1697L10.5001 1697ZM10.5001 1709L10.5001 1715L13.5001 1715L13.5001 1709L10.5001 1709ZM10.5001 1721L10.5001 1727L13.5001 1727L13.5001 1721L10.5001 1721ZM10.5001 1733L10.5001 1739L13.5001 1739L13.5001 1733L10.5001 1733ZM10.5001 1745L10.5001 1751L13.5001 1751L13.5001 1745L10.5001 1745ZM10.5001 1757L10.5001 1763L13.5001 1763L13.5001 1757L10.5001 1757ZM10.5001 1769L10.5001 1775L13.5001 1775L13.5001 1769L10.5001 1769ZM10.5001 1781L10.5001 1787L13.5001 1787L13.5001 1781L10.5001 1781ZM10.5001 1793L10.5001 1799L13.5001 1799L13.5001 1793L10.5001 1793ZM10.5001 1805L10.5001 1811L13.5001 1811L13.5001 1805L10.5001 1805ZM10.5001 1817L10.5001 1823L13.5001 1823L13.5001 1817L10.5001 1817ZM10.5001 1829L10.5001 1835L13.5001 1835L13.5001 1829L10.5001 1829ZM10.5001 1841L10.5001 1847L13.5001 1847L13.5001 1841L10.5001 1841ZM10.5001 1853L10.5001 1859L13.5001 1859L13.5001 1853L10.5001 1853ZM10.5001 1865L10.5001 1871L13.5001 1871L13.5001 1865L10.5001 1865ZM10.5001 1877L10.5001 1883L13.5001 1883L13.5001 1877L10.5001 1877ZM10.5001 1889L10.5001 1895L13.5001 1895L13.5001 1889L10.5001 1889ZM10.5001 1901L10.5001 1907L13.5001 1907L13.5001 1901L10.5001 1901ZM10.5001 1913L10.5001 1919L13.5001 1919L13.5001 1913L10.5001 1913ZM10.5001 1925L10.5001 1931L13.5001 1931L13.5001 1925L10.5001 1925ZM10.5001 1937L10.5001 1943L13.5001 1943L13.5001 1937L10.5001 1937ZM10.5001 1949L10.5001 1955L13.5001 1955L13.5001 1949L10.5001 1949ZM10.5001 1961L10.5001 1967L13.5001 1967L13.5001 1961L10.5001 1961ZM10.5001 1973L10.5001 1979L13.5001 1979L13.5001 1973L10.5001 1973ZM10.5001 1985L10.5001 1991L13.5001 1991L13.5001 1985L10.5001 1985ZM10.5001 1997L10.5001 2003L13.5001 2003L13.5001 1997L10.5001 1997ZM10.5001 2009L10.5001 2015L13.5001 2015L13.5001 2009L10.5001 2009ZM10.5001 2021L10.5001 2027L13.5001 2027L13.5001 2021L10.5001 2021ZM10.5001 2033L10.5001 2039L13.5001 2039L13.5001 2033L10.5001 2033ZM10.5001 2045L10.5001 2051L13.5001 2051L13.5001 2045L10.5001 2045ZM10.5001 2057L10.5001 2063L13.5001 2063L13.5001 2057L10.5001 2057ZM10.5001 2069L10.5001 2075L13.5001 2075L13.5001 2069L10.5001 2069ZM10.5001 2081L10.5001 2087L13.5001 2087L13.5001 2081L10.5001 2081ZM10.5001 2093L10.5001 2099L13.5001 2099L13.5001 2093L10.5001 2093ZM10.5001 2105L10.5001 2111L13.5001 2111L13.5001 2105L10.5001 2105ZM10.5001 2117L10.5001 2123L13.5001 2123L13.5001 2117L10.5001 2117ZM10.5001 2129L10.5001 2135L13.5001 2135L13.5001 2129L10.5001 2129ZM10.5001 2141L10.5001 2147L13.5001 2147L13.5001 2141L10.5001 2141ZM10.5001 2153L10.5001 2159L13.5001 2159L13.5001 2153L10.5001 2153ZM10.5001 2165L10.5001 2171L13.5001 2171L13.5001 2165L10.5001 2165ZM10.5001 2177L10.5001 2183L13.5001 2183L13.5001 2177L10.5001 2177ZM10.5001 2189L10.5001 2195L13.5001 2195L13.5001 2189L10.5001 2189ZM10.5001 2201L10.5001 2207L13.5001 2207L13.5001 2201L10.5001 2201ZM10.5001 2213L10.5001 2219L13.5001 2219L13.5001 2213L10.5001 2213ZM10.5001 2225L10.5001 2231L13.5001 2231L13.5001 2225L10.5001 2225ZM10.5001 2237L10.5001 2243L13.5001 2243L13.5001 2237L10.5001 2237ZM10.5001 2249L10.5001 2255L13.5001 2255L13.5001 2249L10.5001 2249ZM10.5001 2261L10.5001 2267L13.5001 2267L13.5001 2261L10.5001 2261ZM10.5001 2273L10.5001 2279L13.5001 2279L13.5001 2273L10.5001 2273ZM10.5001 2285L10.5001 2291L13.5001 2291L13.5001 2285L10.5001 2285ZM10.5001 2297L10.5001 2303L13.5001 2303L13.5001 2297L10.5001 2297ZM10.5001 2309L10.5001 2315L13.5001 2315L13.5001 2309L10.5001 2309ZM10.5001 2321L10.5001 2327L13.5001 2327L13.5001 2321L10.5001 2321ZM10.5001 2333L10.5001 2339L13.5001 2339L13.5001 2333L10.5001 2333ZM10.5001 2345L10.5001 2351L13.5001 2351L13.5001 2345L10.5001 2345ZM10.5001 2357L10.5001 2363L13.5001 2363L13.5001 2357L10.5001 2357ZM10.5001 2369L10.5001 2375L13.5001 2375L13.5001 2369L10.5001 2369ZM10.5001 2381L10.5001 2387L13.5001 2387L13.5001 2381L10.5001 2381ZM10.5001 2393L10.5001 2399L13.5001 2399L13.5001 2393L10.5001 2393ZM10.5001 2405L10.5001 2411L13.5001 2411L13.5001 2405L10.5001 2405ZM10.5001 2417L10.5001 2423L13.5001 2423L13.5001 2417L10.5001 2417ZM10.5001 2429L10.5001 2435L13.5001 2435L13.5001 2429L10.5001 2429ZM10.5001 2441L10.5001 2447L13.5001 2447L13.5001 2441L10.5001 2441ZM10.5001 2453L10.5001 2459L13.5001 2459L13.5001 2453L10.5001 2453ZM10.5001 2465L10.5001 2471L13.5001 2471L13.5001 2465L10.5001 2465ZM10.5001 2477L10.5001 2483L13.5001 2483L13.5001 2477L10.5001 2477ZM10.5001 2489L10.5001 2495L13.5001 2495L13.5001 2489L10.5001 2489ZM10.5001 2501L10.5001 2507L13.5001 2507L13.5001 2501L10.5001 2501ZM10.5001 2513L10.5001 2519L13.5001 2519L13.5001 2513L10.5001 2513ZM10.5001 2525L10.5001 2531L13.5001 2531L13.5001 2525L10.5001 2525ZM10.5001 2537L10.5001 2543L13.5001 2543L13.5001 2537L10.5001 2537ZM10.5001 2549L10.5001 2555L13.5001 2555L13.5001 2549L10.5001 2549ZM10.5001 2561L10.5001 2567L13.5001 2567L13.5001 2561L10.5001 2561ZM10.5001 2573L10.5001 2579L13.5001 2579L13.5001 2573L10.5001 2573ZM10.5001 2585L10.5001 2591L13.5001 2591L13.5001 2585L10.5001 2585ZM10.5001 2597L10.5001 2603L13.5001 2603L13.5001 2597L10.5001 2597ZM10.5001 2609L10.5001 2615L13.5001 2615L13.5001 2609L10.5001 2609ZM10.5001 2621L10.5001 2627L13.5001 2627L13.5001 2621L10.5001 2621ZM10.5001 2633L10.5001 2639L13.5001 2639L13.5001 2633L10.5001 2633ZM10.5001 2645L10.5001 2651L13.5001 2651L13.5001 2645L10.5001 2645ZM10.5001 2657L10.5001 2663L13.5001 2663L13.5001 2657L10.5001 2657ZM10.5001 2669L10.5001 2675L13.5001 2675L13.5001 2669L10.5001 2669ZM10.5001 2681L10.5001 2687L13.5001 2687L13.5001 2681L10.5001 2681ZM10.5001 2693L10.5001 2699L13.5001 2699L13.5001 2693L10.5001 2693ZM10.5001 2705L10.5001 2711L13.5001 2711L13.5001 2705L10.5001 2705ZM10.5001 2717L10.5001 2720L13.5001 2720L13.5001 2717L10.5001 2717Z" fill="#999999"/>
</svg>
